<?xml version="1.0" encoding="utf-8"?>
<!-- Generator: Adobe Illustrator 21.1.0, SVG Export Plug-In . SVG Version: 6.00 Build 0)  -->
<svg version="1.1" id="Layer_1" xmlns="http://www.w3.org/2000/svg" xmlns:xlink="http://www.w3.org/1999/xlink" x="0px" y="0px"
	 viewBox="0 0 68 68" style="enable-background:new 0 0 68 68;" xml:space="preserve">
<style type="text/css">
	.st0{fill:#00D5CF;}
</style>
<g>
	<path class="st0" d="M269.8,191c-2.1,2.1-2.1,5.5,0,7.6c2.1,2.1,5.5,2.1,7.6,0l14-14l0,0l3.4-3.4c2.2-2.2,2.3-5.7,0.3-8.1
		c-0.1-0.1-0.2-0.3-0.4-0.4l-3.4-3.4l0,0l-14-14c-2.1-2.1-5.5-2.1-7.6,0c-2.1,2.1-2.1,5.5,0,7.6l14,14L269.8,191z"/>
</g>
<g>
	<path class="st0" d="M269.8,191c-2.1,2.1-2.1,5.5,0,7.6c2.1,2.1,5.5,2.1,7.6,0l14-14l0,0l3.4-3.4c2.2-2.2,2.3-5.7,0.3-8.1
		c-0.1-0.1-0.2-0.3-0.4-0.4l-3.4-3.4l0,0l-14-14c-2.1-2.1-5.5-2.1-7.6,0c-2.1,2.1-2.1,5.5,0,7.6l14,14L269.8,191z"/>
</g>
<g>
	<path class="st0" d="M269.8,191c-2.1,2.1-2.1,5.5,0,7.6c2.1,2.1,5.5,2.1,7.6,0l14-14l0,0l3.4-3.4c2.2-2.2,2.3-5.7,0.3-8.1
		c-0.1-0.1-0.2-0.3-0.4-0.4l-3.4-3.4l0,0l-14-14c-2.1-2.1-5.5-2.1-7.6,0c-2.1,2.1-2.1,5.5,0,7.6l14,14L269.8,191z"/>
</g>
<g>
	<path class="st0" d="M269.8,191c-2.1,2.1-2.1,5.5,0,7.6c2.1,2.1,5.5,2.1,7.6,0l14-14l0,0l3.4-3.4c2.2-2.2,2.3-5.7,0.3-8.1
		c-0.1-0.1-0.2-0.3-0.4-0.4l-3.4-3.4l0,0l-14-14c-2.1-2.1-5.5-2.1-7.6,0c-2.1,2.1-2.1,5.5,0,7.6l14,14L269.8,191z"/>
</g>
<g>
	<path class="st0" d="M269.8,191c-2.1,2.1-2.1,5.5,0,7.6c2.1,2.1,5.5,2.1,7.6,0l14-14l0,0l3.4-3.4c2.2-2.2,2.3-5.7,0.3-8.1
		c-0.1-0.1-0.2-0.3-0.4-0.4l-3.4-3.4l0,0l-14-14c-2.1-2.1-5.5-2.1-7.6,0c-2.1,2.1-2.1,5.5,0,7.6l14,14L269.8,191z"/>
</g>
<g>
	<path class="st0" d="M269.8,191c-2.1,2.1-2.1,5.5,0,7.6c2.1,2.1,5.5,2.1,7.6,0l14-14l0,0l3.4-3.4c2.2-2.2,2.3-5.7,0.3-8.1
		c-0.1-0.1-0.2-0.3-0.4-0.4l-3.4-3.4l0,0l-14-14c-2.1-2.1-5.5-2.1-7.6,0c-2.1,2.1-2.1,5.5,0,7.6l14,14L269.8,191z"/>
</g>
<g>
	<path class="st0" d="M269.8,191c-2.1,2.1-2.1,5.5,0,7.6c2.1,2.1,5.5,2.1,7.6,0l14-14l0,0l3.4-3.4c2.2-2.2,2.3-5.7,0.3-8.1
		c-0.1-0.1-0.2-0.3-0.4-0.4l-3.4-3.4l0,0l-14-14c-2.1-2.1-5.5-2.1-7.6,0c-2.1,2.1-2.1,5.5,0,7.6l14,14L269.8,191z"/>
</g>
<g>
	<path class="st0" d="M269.8,191c-2.1,2.1-2.1,5.5,0,7.6c2.1,2.1,5.5,2.1,7.6,0l14-14l0,0l3.4-3.4c2.2-2.2,2.3-5.7,0.3-8.1
		c-0.1-0.1-0.2-0.3-0.4-0.4l-3.4-3.4l0,0l-14-14c-2.1-2.1-5.5-2.1-7.6,0c-2.1,2.1-2.1,5.5,0,7.6l14,14L269.8,191z"/>
</g>
<g>
	<path class="st0" d="M269.8,191c-2.1,2.1-2.1,5.5,0,7.6c2.1,2.1,5.5,2.1,7.6,0l14-14l0,0l3.4-3.4c2.2-2.2,2.3-5.7,0.3-8.1
		c-0.1-0.1-0.2-0.3-0.4-0.4l-3.4-3.4l0,0l-14-14c-2.1-2.1-5.5-2.1-7.6,0c-2.1,2.1-2.1,5.5,0,7.6l14,14L269.8,191z"/>
</g>
<g>
	<path class="st0" d="M41.5,19.9c2.1-2.1,2.1-5.5,0-7.6c-2.1-2.1-5.5-2.1-7.6,0l-14,14l0,0l-3.4,3.4c-2.2,2.2-2.3,5.7-0.3,8.1
		c0.1,0.1,0.2,0.3,0.4,0.4l3.4,3.4l0,0l14,14c2.1,2.1,5.5,2.1,7.6,0c2.1-2.1,2.1-5.5,0-7.6l-14-14L41.5,19.9z"/>
</g>
</svg>
