<svg width="20" height="19" viewBox="0 0 20 19" fill="none" xmlns="http://www.w3.org/2000/svg">
<path d="M17.7344 0.355469C18.0156 0.214844 18.332 0.214844 18.6133 0.425781C18.8945 0.636719 19.0352 0.882812 19 1.23438L16.4688 16.4219C16.3984 16.7031 16.2578 16.8789 16.0117 17.0195C15.7656 17.1602 15.5195 17.1953 15.3086 17.0547L10.9141 15.2266L8.69922 17.9336C8.52344 18.1445 8.3125 18.25 8.06641 18.25C7.82031 18.25 7.60938 18.1797 7.43359 18.0391C7.25781 17.8984 7.1875 17.6523 7.1875 17.3711V14.5586L15.6602 4.22266C15.7305 4.15234 15.6953 4.04688 15.625 3.97656C15.5195 3.90625 15.4141 3.87109 15.3438 3.94141L5.25391 12.8359L1.52734 11.2891C1.17578 11.1484 1 10.9023 1 10.5508C0.964844 10.1992 1.10547 9.95312 1.45703 9.77734L17.7344 0.355469Z" fill="#00D5CF"/>
</svg>
