<svg width="14" height="19" viewBox="0 0 14 19" fill="none" xmlns="http://www.w3.org/2000/svg">
<path d="M8.125 5.03125C8.125 5.27734 8.19531 5.48828 8.37109 5.62891C8.51172 5.80469 8.72266 5.875 8.96875 5.875H13.75V17.4062C13.75 17.6523 13.6445 17.8633 13.5039 18.0039C13.3281 18.1797 13.1172 18.25 12.9062 18.25H1.09375C0.847656 18.25 0.636719 18.1797 0.496094 18.0039C0.320312 17.8633 0.25 17.6523 0.25 17.4062V1.09375C0.25 0.882812 0.320312 0.671875 0.496094 0.496094C0.636719 0.355469 0.847656 0.25 1.09375 0.25H8.125V5.03125ZM10.7969 12.4492C10.9727 12.3086 11.0078 12.0977 10.9375 11.8516C10.832 11.6406 10.6562 11.5 10.4102 11.5H8.125V8.6875C8.125 8.54688 8.05469 8.40625 7.94922 8.30078C7.84375 8.19531 7.70312 8.125 7.5625 8.125H6.4375C6.26172 8.125 6.12109 8.19531 6.01562 8.30078C5.91016 8.40625 5.875 8.54688 5.875 8.6875V11.5H3.58984C3.30859 11.5 3.13281 11.6406 3.0625 11.8516C2.95703 12.0977 2.99219 12.3086 3.20312 12.4492L6.57812 15.8242C6.68359 15.9648 6.82422 16 7 16C7.14062 16 7.28125 15.9648 7.42188 15.8242L10.7969 12.4492ZM13.5039 3.94141C13.6445 4.11719 13.75 4.32812 13.75 4.53906V4.75H9.25V0.25H9.46094C9.67188 0.25 9.88281 0.355469 10.0586 0.496094L13.5039 3.94141Z" fill="#273555"/>
</svg>
